<svg width="119" height="27" viewBox="0 0 119 27" fill="none" xmlns="http://www.w3.org/2000/svg">
<path d="M2.2041 20.7349V5.24571H5.60941V20.7349H2.2041Z" fill="#FF5555"/>
<path d="M43.9549 16.2331C44.4894 17.6271 45.7017 18.3655 47.1839 18.3655C48.3686 18.3655 49.8233 17.8035 49.8233 16.4094C49.8233 15.0153 48.4017 14.602 47.3051 14.4257L46.3298 14.2494C43.8117 13.8031 41.3266 12.5908 41.3266 9.68694C41.3266 6.48551 44.1092 4.79939 47.1013 4.79939C49.7958 4.79939 52.2258 6.19347 52.9972 8.88796L49.9445 9.62632C49.4431 8.32041 48.4623 7.58204 47.0737 7.58204C45.9772 7.58204 44.6768 8.14408 44.6768 9.41694C44.6768 10.6898 46.3629 11.0755 47.3437 11.2518L48.319 11.4282C50.8372 11.8414 53.2341 13.2355 53.2341 16.0788C53.2341 19.3959 50.2696 21.1757 47.1619 21.1757C44.4068 21.1757 41.7398 19.7816 40.8802 17.0265L43.9605 16.2276L43.9549 16.2331Z" fill="#FF5555"/>
<path d="M57.2566 5.24571V0H60.6619V5.24571H65.1637V8.00082H60.6619V15.6159C60.6619 16.9494 61.1964 18.1947 62.7062 18.1947C63.0588 18.1947 63.4445 18.1341 63.8633 18.0184C64.2766 17.9302 64.6623 17.7814 65.0205 17.572L65.7919 20.1508C65.3456 20.4759 64.8166 20.7129 64.2215 20.9222C63.5988 21.0986 62.9486 21.1867 62.2654 21.1867C59.0088 21.1867 57.2621 19.17 57.2621 15.9741V8.00633H54.5345V5.25122H57.2621L57.2566 5.24571Z" fill="#FF5555"/>
<path d="M73.8753 11.3731C75.1813 11.3731 76.4541 11.61 77.6664 12.1114V11.1361C77.6664 9.18 76.5698 7.64265 74.4649 7.64265C73.0433 7.64265 71.798 8.44163 71.2635 9.7751L68.1227 9.06428C68.8941 6.28163 71.7649 4.79939 74.52 4.79939C78.3111 4.79939 81.0386 7.37816 81.0386 11.2849V20.7349H77.9309L77.8151 18.6906C76.8398 20.4098 74.9443 21.1812 73.0433 21.1812C70.2 21.1812 67.5662 19.4014 67.5662 16.3212C67.5662 12.8553 70.7676 11.3731 73.8753 11.3731ZM73.8423 18.4537C75.9141 18.4537 77.6609 17.0045 77.6609 14.839V14.4808C77.1594 14.2714 76.6249 14.0951 76.0904 13.9463C75.5284 13.8251 74.9664 13.77 74.4043 13.77C72.9221 13.77 70.999 14.3651 70.999 16.1669C70.999 17.7043 72.4482 18.4482 73.8423 18.4482V18.4537Z" fill="#FF5555"/>
<path d="M101.118 15.8529L100.049 18.7843C99.4096 18.5529 98.7429 18.4206 98.0707 18.3765C97.5582 19.8918 96.897 21.3024 96.0815 22.4596C94.2851 24.9943 92.2409 25.65 90.6153 25.65C90.3013 25.65 90.0037 25.628 89.7227 25.5839C87.3864 25.2478 86.5598 24.1402 86.2788 23.2641C86.0309 22.5037 85.9151 20.9333 87.9098 19.0157C89.5133 17.4729 92.4558 15.8584 95.6737 15.379C96.2633 12.7837 96.3735 10.1939 96.2027 8.77224C95.6627 9.38387 94.996 10.2986 94.4945 10.9818C92.3731 13.8967 89.4637 17.8916 85.7884 16.459C81.3086 14.7067 83.8984 7.05857 84.4605 5.54326L87.3864 6.63428C86.3229 9.49959 85.8931 13.1473 86.9235 13.5496C88.3562 14.1061 90.4445 11.2408 91.9653 9.14693C93.6294 6.8602 94.9464 5.05285 96.7262 5.04183C97.1119 5.04734 98.0982 5.16306 98.7264 6.36428C99.5474 7.93469 99.619 11.61 98.8751 15.3184C99.63 15.4065 100.379 15.5829 101.112 15.8473L101.118 15.8529ZM94.5662 18.8063C93.3649 19.159 92.2684 19.688 91.4033 20.239C90.0588 21.0986 89.4527 21.8975 89.3039 22.2667C89.4362 22.3329 89.6951 22.4265 90.1635 22.4982C90.6484 22.5698 92.1196 22.7792 93.657 20.4704C93.9986 19.9635 94.2962 19.4014 94.5607 18.8118L94.5662 18.8063Z" fill="#FF5555"/>
<path d="M102.49 18.4812L110.546 7.99531H102.694V5.24021H114.75V7.49389L106.694 17.9798H115.257V20.7349H102.49V18.4812Z" fill="#FF5555"/>
<path d="M8.73364 20.7955H12.1389V12.0839C12.1389 9.92388 13.1473 7.9347 15.5773 7.9347C18.0073 7.9347 19.0157 9.91837 19.0157 12.0839V20.7955H22.421V12.1445C22.421 7.99531 19.991 4.86 15.5498 4.86C11.1085 4.86 8.73915 7.87959 8.73915 12.1445V20.7955H8.73364Z" fill="#FF5555"/>
<path d="M24.9888 20.7955H28.3941V12.0839C28.3941 9.92388 29.4024 7.9347 31.8324 7.9347C34.2624 7.9347 35.2708 9.91837 35.2708 12.0839V20.7955H38.6761V12.1445C38.6761 7.99531 36.2461 4.86 31.8049 4.86C27.3637 4.86 24.9943 7.87959 24.9943 12.1445V20.7955H24.9888Z" fill="#FF5555"/>
</svg>
