<svg width="26" height="26" viewBox="0 0 26 26" fill="none" xmlns="http://www.w3.org/2000/svg">
<path fill-rule="evenodd" clip-rule="evenodd" d="M22.1856 8.20987L16.3508 3.38552C14.3853 1.76049 11.6148 1.76049 9.6493 3.38552L3.8144 8.20987C2.76316 9.07905 2.16669 10.3969 2.16669 11.7719V19.2952C2.16669 21.7382 4.04535 23.8334 6.50002 23.8334H8.66668C9.8633 23.8334 10.8333 22.8634 10.8333 21.6667V18.1435C10.8333 16.7704 11.8648 15.772 13 15.772C14.1352 15.772 15.1667 16.7704 15.1667 18.1435V21.6667C15.1667 22.8634 16.1367 23.8334 17.3333 23.8334H19.5C21.9547 23.8334 23.8333 21.7382 23.8333 19.2952V11.7719C23.8333 10.3969 23.2369 9.07905 22.1856 8.20987Z" fill="#CDCDCD"/>
</svg>
