<svg width="26" height="26" viewBox="0 0 26 26" fill="none" xmlns="http://www.w3.org/2000/svg">
<path fill-rule="evenodd" clip-rule="evenodd" d="M22.1856 8.20987L16.3507 3.38552C14.3853 1.76049 11.6147 1.76049 9.64928 3.38552L3.81438 8.20987C2.76314 9.07905 2.16667 10.3969 2.16667 11.7719V19.2952C2.16667 21.7382 4.04533 23.8334 6.5 23.8334H8.66666C9.86328 23.8334 10.8333 22.8634 10.8333 21.6667V18.1435C10.8333 16.7704 11.8648 15.772 13 15.772C14.1352 15.772 15.1667 16.7704 15.1667 18.1435V21.6667C15.1667 22.8634 16.1367 23.8334 17.3333 23.8334H19.5C21.9547 23.8334 23.8333 21.7382 23.8333 19.2952V11.7719C23.8333 10.3969 23.2368 9.07905 22.1856 8.20987Z" fill="#FF5555"/>
</svg>
