<svg width="26" height="26" viewBox="0 0 26 26" fill="none" xmlns="http://www.w3.org/2000/svg">
<g clip-path="url(#clip0_20_420)">
<path d="M12.8147 12.5243C14.5353 12.5243 16.0253 11.9072 17.2426 10.6896C18.46 9.47225 19.0771 7.98274 19.0771 6.26194C19.0771 4.54173 18.46 3.05202 17.2424 1.83427C16.0249 0.617109 14.5351 0 12.8147 0C11.0939 0 9.6044 0.617109 8.38704 1.83446C7.16968 3.05182 6.55237 4.54153 6.55237 6.26194C6.55237 7.98274 7.16968 9.47245 8.38724 10.6898C9.6048 11.907 11.0945 12.5243 12.8147 12.5243Z" fill="#FF5555"/>
<path d="M23.7722 19.9927C23.7371 19.4861 23.6661 18.9335 23.5615 18.3499C23.456 17.762 23.3201 17.2061 23.1574 16.6981C22.9894 16.1731 22.7609 15.6545 22.4784 15.1576C22.1853 14.6419 21.8409 14.1928 21.4545 13.8233C21.0504 13.4366 20.5557 13.1258 19.9836 12.8991C19.4135 12.6735 18.7817 12.5593 18.1059 12.5593C17.8405 12.5593 17.5838 12.6682 17.0881 12.9909C16.783 13.1899 16.4262 13.42 16.0278 13.6745C15.6872 13.8915 15.2259 14.0948 14.6559 14.2789C14.0999 14.4588 13.5354 14.5501 12.9782 14.5501C12.421 14.5501 11.8566 14.4588 11.3 14.2789C10.7307 14.095 10.2693 13.8917 9.92913 13.6747C9.53458 13.4226 9.17752 13.1925 8.86788 12.9907C8.37276 12.668 8.11588 12.5591 7.85047 12.5591C7.17444 12.5591 6.54285 12.6735 5.97295 12.8993C5.40126 13.1256 4.90634 13.4364 4.50188 13.8234C4.11566 14.1932 3.7711 14.6421 3.47832 15.1576C3.19605 15.6545 2.96753 16.1729 2.79932 16.6983C2.63686 17.2063 2.50098 17.762 2.39545 18.3499C2.29091 18.9327 2.21989 19.4855 2.18478 19.9933C2.15027 20.4908 2.13281 21.0072 2.13281 21.5287C2.13281 22.8859 2.56425 23.9846 3.41504 24.7949C4.25531 25.5945 5.36714 26.0002 6.71919 26.0002H19.2384C20.5904 26.0002 21.7019 25.5947 22.5423 24.7949C23.3933 23.9852 23.8247 22.8863 23.8247 21.5285C23.8245 21.0046 23.8069 20.4879 23.7722 19.9927Z" fill="#FF5555"/>
</g>
<defs>
<clipPath id="clip0_20_420">
<rect width="26" height="26" fill="white"/>
</clipPath>
</defs>
</svg>
