<svg width="26" height="26" viewBox="0 0 26 26" fill="none" xmlns="http://www.w3.org/2000/svg">
<path d="M19.5 2.16675H6.50001C5.63805 2.16675 4.8114 2.50916 4.20191 3.11865C3.59242 3.72814 3.25001 4.55479 3.25001 5.41675V21.4501C3.24921 21.8163 3.34125 22.1767 3.51752 22.4977C3.69379 22.8187 3.94855 23.0898 4.258 23.2856C4.56744 23.4814 4.92147 23.5957 5.28703 23.6176C5.65258 23.6395 6.01772 23.5684 6.34834 23.4109C6.60834 23.2809 6.83584 23.1401 7.07417 22.9992C7.53255 22.6551 8.09366 22.4757 8.66667 22.4901C9.24301 22.4758 9.80752 22.655 10.27 22.9992C11.07 23.5568 12.025 23.8486 13 23.8334C13.9751 23.8494 14.9304 23.5575 15.73 22.9992C16.1921 22.6543 16.7569 22.4749 17.3333 22.4901C17.9066 22.474 18.4683 22.6535 18.9258 22.9992C19.1605 23.1456 19.4028 23.2794 19.6517 23.4001C19.9815 23.5572 20.3456 23.6283 20.7103 23.6069C21.075 23.5855 21.4283 23.4722 21.7374 23.2777C22.0466 23.0831 22.3015 22.8135 22.4786 22.494C22.6556 22.1745 22.749 21.8154 22.75 21.4501V5.41675C22.75 4.55479 22.4076 3.72814 21.7981 3.11865C21.1886 2.50916 20.362 2.16675 19.5 2.16675ZM13 17.3334H8.66667C8.37936 17.3334 8.10381 17.2193 7.90064 17.0161C7.69748 16.8129 7.58334 16.5374 7.58334 16.2501C7.58334 15.9628 7.69748 15.6872 7.90064 15.484C8.10381 15.2809 8.37936 15.1667 8.66667 15.1667H13C13.2873 15.1667 13.5629 15.2809 13.766 15.484C13.9692 15.6872 14.0833 15.9628 14.0833 16.2501C14.0833 16.5374 13.9692 16.8129 13.766 17.0161C13.5629 17.2193 13.2873 17.3334 13 17.3334ZM17.3333 13.0001H8.66667C8.37936 13.0001 8.10381 12.8859 7.90064 12.6828C7.69748 12.4796 7.58334 12.2041 7.58334 11.9167C7.58334 11.6294 7.69748 11.3539 7.90064 11.1507C8.10381 10.9475 8.37936 10.8334 8.66667 10.8334H17.3333C17.6207 10.8334 17.8962 10.9475 18.0994 11.1507C18.3025 11.3539 18.4167 11.6294 18.4167 11.9167C18.4167 12.2041 18.3025 12.4796 18.0994 12.6828C17.8962 12.8859 17.6207 13.0001 17.3333 13.0001ZM17.3333 8.66675H8.66667C8.37936 8.66675 8.10381 8.55261 7.90064 8.34945C7.69748 8.14628 7.58334 7.87073 7.58334 7.58341C7.58334 7.2961 7.69748 7.02055 7.90064 6.81738C8.10381 6.61422 8.37936 6.50008 8.66667 6.50008H17.3333C17.6207 6.50008 17.8962 6.61422 18.0994 6.81738C18.3025 7.02055 18.4167 7.2961 18.4167 7.58341C18.4167 7.87073 18.3025 8.14628 18.0994 8.34945C17.8962 8.55261 17.6207 8.66675 17.3333 8.66675Z" fill="#FF5555"/>
</svg>
